<svg width="17" height="23" viewBox="0 0 17 23" fill="none" xmlns="http://www.w3.org/2000/svg">
<path fill-rule="evenodd" clip-rule="evenodd" d="M14.7974 6.70611C14.5235 4.2996 12.4287 3.52786 9.79759 3.34359L9.73921 -1.68733e-05L7.70393 0.0358005L7.76093 3.29133C7.22583 3.30063 6.67916 3.32078 6.1359 3.3411L6.07902 0.0639462L4.04493 0.0994449L4.10261 3.44215C3.66222 3.45886 3.22953 3.4747 2.80764 3.48227L2.80721 3.47182L0.000128789 3.51978L0.038617 5.69353C0.038617 5.69353 1.54106 5.63872 1.51658 5.66669C2.34084 5.6525 2.6176 6.1265 2.70302 6.53809L2.76963 10.3472C2.82646 10.3465 2.9007 10.3475 2.98504 10.3577L2.92586 10.3587C2.87564 10.3596 2.82345 10.3604 2.77001 10.3619L2.86261 15.6981C2.83109 15.9581 2.68582 16.3746 2.10982 16.3856C2.13637 16.4082 0.630404 16.4111 0.630404 16.4111L0.268349 18.8488L2.91701 18.8025C3.2071 18.7978 3.49446 18.7959 3.77892 18.794L3.7792 18.794L3.77946 18.794C3.97819 18.7926 4.1755 18.7913 4.37132 18.789L4.43126 22.1707L6.46434 22.1355L6.40577 18.7895C6.96425 18.7913 7.50441 18.7863 8.03195 18.7767L8.0892 22.1072L10.1246 22.0713L10.0661 18.6956C13.4845 18.4396 15.8642 17.5359 16.1054 14.3173C16.3003 11.7258 15.0631 10.5926 13.1128 10.1601C14.2824 9.53854 15.0017 8.46701 14.7982 6.70618L14.7975 6.70592L14.7974 6.70611ZM12.076 13.9868C12.1175 16.3054 8.47431 16.3184 6.80744 16.3244C6.6575 16.3249 6.52354 16.3254 6.40971 16.3275L6.33203 11.8468C6.4708 11.8444 6.6393 11.8375 6.8302 11.8297L6.83026 11.8297C8.53731 11.7596 12.0348 11.616 12.0761 13.9868L12.076 13.9868ZM6.63096 9.79385C8.02161 9.79246 11.0553 9.78943 11.019 7.68173L11.0192 7.68169C10.9813 5.52624 8.06658 5.65432 6.64304 5.71688C6.48289 5.72392 6.34162 5.73012 6.22543 5.73216L6.29621 9.79576C6.39188 9.79409 6.50464 9.79398 6.63096 9.79385Z" fill="#F7931A"/>
</svg>
